<svg width="261" height="132" viewBox="0 0 261 132" fill="none" xmlns="http://www.w3.org/2000/svg">
<rect x="81" y="9" width="100" height="89" rx="24" fill="#44475A"/>
<g filter="url(#filter0_d_151_34)">
<path d="M110.178 41.7L114.042 47.804L95.8704 58.416L114.042 68.832L110.038 75.132L88.2264 61.58V55.308L110.178 41.7ZM150.899 41.7L172.795 55.252V61.58L150.983 75.132L146.979 69.112L165.179 58.416L146.979 48.056L150.899 41.7ZM13.4863 105.3L15.1423 107.916L7.35431 112.464L15.1423 116.928L13.4263 119.628L4.07831 113.82V111.132L13.4863 105.3ZM40.2996 105.3L49.6836 111.108V113.82L40.3356 119.628L38.6196 117.048L46.4196 112.464L38.6196 108.024L40.2996 105.3ZM232.739 124.164L229.775 122.808L230.735 120.828L219.467 113.82V111.132L228.875 105.3L230.531 107.916L222.743 112.464L232.103 117.972L240.575 100.392L243.515 101.748L242.567 103.716L254.531 111.108V113.82L245.183 119.628L243.467 117.048L251.267 112.464L241.199 106.572L232.739 124.164Z" fill="#E5E5E5"/>
<path d="M145.353 31.648V39.328H136.201V68.288H145.353V76H116.553V68.288H125.705V39.328H116.553V31.648H145.353ZM32.2809 103.368V106.248H28.8489V117.108H32.2809V120H21.4809V117.108H24.9129V106.248H21.4809V103.368H32.2809Z" fill="#5DE3FF"/>
<path d="M59.6942 101.796V120H55.9022V102.192L59.6942 101.796ZM67.9982 107.256L63.8102 112.896L68.3462 120H64.0262L59.8382 113.016L64.0262 107.256H67.9982ZM73.1728 120V107.256H76.4848L76.7488 108.732C77.3168 108.092 77.9168 107.616 78.5488 107.304C79.1808 106.992 79.9008 106.836 80.7088 106.836C81.7968 106.836 82.6528 107.168 83.2768 107.832C83.9008 108.496 84.2128 109.432 84.2128 110.64V120H80.4208V111.732C80.4208 110.948 80.3328 110.404 80.1568 110.1C79.9888 109.788 79.6688 109.632 79.1968 109.632C78.7968 109.632 78.4128 109.76 78.0448 110.016C77.6848 110.272 77.3248 110.628 76.9648 111.084V120H73.1728ZM95.9634 106.836C97.2754 106.836 98.3914 107.116 99.3114 107.676C100.231 108.236 100.935 109.024 101.423 110.04C101.911 111.048 102.155 112.232 102.155 113.592C102.155 115.72 101.611 117.388 100.523 118.596C99.4354 119.804 97.9154 120.408 95.9634 120.408C94.0114 120.408 92.4914 119.812 91.4034 118.62C90.3154 117.428 89.7714 115.76 89.7714 113.616C89.7714 112.264 90.0154 111.08 90.5034 110.064C90.9994 109.048 91.7074 108.256 92.6274 107.688C93.5554 107.12 94.6674 106.836 95.9634 106.836ZM95.9634 109.632C95.1874 109.632 94.6114 109.952 94.2354 110.592C93.8674 111.224 93.6834 112.232 93.6834 113.616C93.6834 115.024 93.8674 116.044 94.2354 116.676C94.6114 117.308 95.1874 117.624 95.9634 117.624C96.7394 117.624 97.3114 117.308 97.6794 116.676C98.0554 116.044 98.2434 115.016 98.2434 113.592C98.2434 112.216 98.0554 111.212 97.6794 110.58C97.3114 109.948 96.7394 109.632 95.9634 109.632ZM118.538 120H114.35L113.258 111.432L112.118 120H108.002L106.118 107.256H109.586L110.414 117.636L111.758 108.864H114.95L116.15 117.636L117.002 107.256H120.35L118.538 120ZM127.829 117.732C127.829 117.244 127.949 116.8 128.189 116.4C128.429 115.992 128.753 115.668 129.161 115.428C129.569 115.18 130.017 115.056 130.505 115.056C131.001 115.056 131.449 115.18 131.849 115.428C132.257 115.668 132.581 115.992 132.821 116.4C133.061 116.8 133.181 117.244 133.181 117.732C133.181 118.212 133.061 118.656 132.821 119.064C132.581 119.472 132.257 119.796 131.849 120.036C131.449 120.284 131.001 120.408 130.505 120.408C130.017 120.408 129.569 120.284 129.161 120.036C128.753 119.796 128.429 119.472 128.189 119.064C127.949 118.656 127.829 118.212 127.829 117.732Z" fill="#FFAE57"/>
<path d="M153.727 119.256C153.231 119.576 152.631 119.848 151.927 120.072C151.223 120.296 150.431 120.408 149.551 120.408C147.887 120.408 146.651 119.984 145.843 119.136C145.035 118.28 144.631 117.12 144.631 115.656V109.872H141.955V107.256H144.631V104.496L148.423 104.04V107.256H152.527L152.155 109.872H148.423V115.656C148.423 116.288 148.567 116.74 148.855 117.012C149.143 117.284 149.603 117.42 150.235 117.42C150.683 117.42 151.091 117.368 151.459 117.264C151.835 117.152 152.171 117.012 152.467 116.844L153.727 119.256ZM163.318 101.82V108.516C164.382 107.396 165.63 106.836 167.062 106.836C168.198 106.836 169.066 107.168 169.666 107.832C170.266 108.496 170.566 109.432 170.566 110.64V120H166.774V111.696C166.774 110.928 166.686 110.392 166.51 110.088C166.342 109.784 166.022 109.632 165.55 109.632C165.15 109.632 164.766 109.772 164.398 110.052C164.038 110.324 163.678 110.7 163.318 111.18V120H159.526V102.192L163.318 101.82ZM182.293 100.584C182.949 100.584 183.485 100.788 183.901 101.196C184.317 101.604 184.525 102.112 184.525 102.72C184.525 103.328 184.317 103.84 183.901 104.256C183.485 104.664 182.949 104.868 182.293 104.868C181.629 104.868 181.085 104.664 180.661 104.256C180.245 103.84 180.037 103.328 180.037 102.72C180.037 102.112 180.245 101.604 180.661 101.196C181.085 100.788 181.629 100.584 182.293 100.584ZM184.585 107.256V117.408H187.825V120H177.181V117.408H180.793V109.848H177.301V107.256H184.585ZM199.179 117.696C199.811 117.696 200.319 117.596 200.703 117.396C201.095 117.196 201.291 116.896 201.291 116.496C201.291 116.224 201.215 115.996 201.063 115.812C200.911 115.628 200.619 115.452 200.187 115.284C199.755 115.116 199.115 114.916 198.267 114.684C197.099 114.372 196.147 113.924 195.411 113.34C194.683 112.756 194.319 111.9 194.319 110.772C194.319 109.636 194.791 108.696 195.735 107.952C196.687 107.208 198.059 106.836 199.851 106.836C200.987 106.836 201.975 106.984 202.815 107.28C203.663 107.568 204.395 107.936 205.011 108.384L203.499 110.616C202.971 110.288 202.403 110.028 201.795 109.836C201.187 109.636 200.575 109.536 199.959 109.536C198.743 109.536 198.135 109.864 198.135 110.52C198.135 110.736 198.211 110.924 198.363 111.084C198.523 111.236 198.819 111.396 199.251 111.564C199.683 111.724 200.315 111.924 201.147 112.164C201.971 112.396 202.687 112.664 203.295 112.968C203.911 113.272 204.387 113.68 204.723 114.192C205.059 114.696 205.227 115.364 205.227 116.196C205.227 117.124 204.951 117.904 204.399 118.536C203.847 119.16 203.115 119.628 202.203 119.94C201.291 120.252 200.291 120.408 199.203 120.408C197.971 120.408 196.883 120.232 195.939 119.88C194.995 119.528 194.191 119.064 193.527 118.488L195.435 116.352C195.931 116.736 196.491 117.056 197.115 117.312C197.747 117.568 198.435 117.696 199.179 117.696Z" fill="#B07BFC"/>
</g>
<defs>
<filter id="filter0_d_151_34" x="2.07831" y="30.648" width="258.453" height="100.516" filterUnits="userSpaceOnUse" color-interpolation-filters="sRGB">
<feFlood flood-opacity="0" result="BackgroundImageFix"/>
<feColorMatrix in="SourceAlpha" type="matrix" values="0 0 0 0 0 0 0 0 0 0 0 0 0 0 0 0 0 0 127 0" result="hardAlpha"/>
<feOffset dx="2" dy="3"/>
<feGaussianBlur stdDeviation="2"/>
<feComposite in2="hardAlpha" operator="out"/>
<feColorMatrix type="matrix" values="0 0 0 0 0 0 0 0 0 0 0 0 0 0 0 0 0 0 0.4 0"/>
<feBlend mode="normal" in2="BackgroundImageFix" result="effect1_dropShadow_151_34"/>
<feBlend mode="normal" in="SourceGraphic" in2="effect1_dropShadow_151_34" result="shape"/>
</filter>
</defs>
</svg>
